<?xml version="1.0" encoding="utf-8"?>
<!-- Generator: Adobe Illustrator 22.1.0, SVG Export Plug-In . SVG Version: 6.00 Build 0)  -->
<svg version="1.1" id="Layer_1" xmlns="http://www.w3.org/2000/svg" xmlns:xlink="http://www.w3.org/1999/xlink" x="0px" y="0px"
	 viewBox="0 0 512 512" style="enable-background:new 0 0 512 512;" xml:space="preserve">
<path d="M125,226c-5.5,0-10,4.5-10,10s4.5,10,10,10s10-4.5,10-10S130.5,226,125,226z"/>
<path d="M85,226c-5.5,0-10,4.5-10,10s4.5,10,10,10s10-4.5,10-10S90.5,226,85,226z"/>
<path d="M0.3,298.6l15.7,58.8C26.2,397.8,62.3,426,104,426H399c41.6,0,77.6-28.1,87.8-68.4l24.6-78.7c1-3,0.4-6.3-1.5-8.9
	c-1.9-2.6-4.9-4.1-8.1-4.1h-20v-70c0-5.5-4.5-10-10-10h-20v-30c0-5.5-4.5-10-10-10h-20V96c0-5.5-4.5-10-10-10h-45
	c-5.5,0-10,4.5-10,10v50h-10c-5.5,0-10,4.5-10,10v150h-40V196c0-5.5-4.5-10-10-10h-17v-50c0-5.5-4.5-10-10-10H80
	c-5.5,0-10,4.5-10,10v50H47c-5.5,0-10,4.5-10,10v90H10c-3.1,0-6,1.4-7.9,3.9C0.2,292.4-0.5,295.6,0.3,298.6z M97,206v40H57v-40H97z
	 M97,266v28.3l-18.1-7.6c-1.2-0.5-2.5-0.8-3.9-0.8H57v-20H97z M130,186H90v-40h40V186z M117,246v-40h40v40H117z M157,266v40h-32
	l-8-3.3V266H157z M190,186h-40v-40h40V186z M177,246v-40h40v40H177z M217,266v40h-40v-40H217z M250,186h-40v-40h40V186z M277,246
	l-40,0v-40l40,0V246z M277,306h-40v-40h40V306z M402,146h-25v-40h25V146z M432,186h-75v-20h75V186z M462,266h-85
	c-3.3,0-6.3,1.6-8.2,4.3L357,287.1V206h105V266z M23,306h50l46.1,19.2c1.2,0.5,2.5,0.8,3.9,0.8h285.7c5.5,0,10-4.5,10-10
	s-4.5-10-10-10h-40.4l14-20h106.2l-20.7,65.9c-0.1,0.2-0.1,0.4-0.2,0.6C459.7,384,431.5,406,399,406H104c-32.5,0-60.6-22-68.5-53.5
	c0-0.1,0-0.1,0-0.2L23,306z"/>
<path d="M236,346c-5.5,0-10,4.5-10,10s4.5,10,10,10s10-4.5,10-10S241.5,346,236,346z"/>
<path d="M196,346c-5.5,0-10,4.5-10,10s4.5,10,10,10s10-4.5,10-10S201.5,346,196,346z"/>
<path d="M156,346c-5.5,0-10,4.5-10,10s4.5,10,10,10s10-4.5,10-10S161.5,346,156,346z"/>
<path d="M316,346c-5.5,0-10,4.5-10,10s4.5,10,10,10s10-4.5,10-10S321.5,346,316,346z"/>
<path d="M276,346c-5.5,0-10,4.5-10,10s4.5,10,10,10s10-4.5,10-10S281.5,346,276,346z"/>
<path d="M395.7,346H356c-5.5,0-10,4.5-10,10s4.5,10,10,10h39.7c5.5,0,10-4.5,10-10S401.2,346,395.7,346z"/>
</svg>
