<?xml version="1.0" encoding="utf-8"?>
<!-- Generator: Adobe Illustrator 22.1.0, SVG Export Plug-In . SVG Version: 6.00 Build 0)  -->
<svg version="1.1" id="Capa_1" xmlns="http://www.w3.org/2000/svg" xmlns:xlink="http://www.w3.org/1999/xlink" x="0px" y="0px"
	 viewBox="0 0 480 480" style="enable-background:new 0 0 480 480;" xml:space="preserve">
<g>
	<g>
		<path d="M472.9,264l-65.5-7.2l-7.4-81.5c-0.4-4.1-3.9-7.3-8-7.3h-56v-56c0-2.7-1.3-5.2-3.6-6.7l-24-16l-8.9,13.3l20.4,13.6V168
			h-16v-40c0-4.4-3.6-8-8-8H8c-4.4,0-8,3.6-8,8v232c0,4.4,3.6,8,8,8h40.8c4.4,21.6,25.4,35.6,47,31.2c12.4-2.5,22.8-10.7,28.2-22.1
			c9.4,19.9,33.2,28.5,53.1,19.1c11.4-5.4,19.6-15.8,22.1-28.2h89.6c4.4,21.6,25.4,35.6,47,31.2c12.4-2.5,22.8-10.7,28.2-22.1
			c9.4,19.9,33.2,28.5,53.1,19.1c11.4-5.4,19.6-15.8,22.1-28.2H472c4.4,0,8-3.6,8-8v-88C480,267.9,476.9,264.5,472.9,264z
			 M389.8,240H352v-24h35.6L389.8,240z M336,184h48.7l1.5,16H344c-4.4,0-8,3.6-8,8V184z M304,184h16v96h-16V184z M16,136h272v160H16
			V136z M88,384c-13.3,0-24-10.7-24-24s10.7-24,24-24s24,10.7,24,24S101.3,384,88,384z M160,384c-13.3,0-24-10.7-24-24
			s10.7-24,24-24s24,10.7,24,24S173.3,384,160,384z M328,384c-13.3,0-24-10.7-24-24s10.7-24,24-24s24,10.7,24,24S341.3,384,328,384z
			 M400,384c-13.3,0-24-10.7-24-24s10.7-24,24-24s24,10.7,24,24S413.3,384,400,384z M464,352h-24.8c-4.4-21.6-25.4-35.6-47-31.2
			c-12.4,2.5-22.8,10.7-28.2,22.1c-9.4-19.9-33.2-28.5-53.1-19.1c-11.4,5.4-19.6,15.8-22.1,28.2h-89.6c-4.4-21.6-25.4-35.6-47-31.2
			c-12.4,2.5-22.8,10.7-28.2,22.1c-9.4-19.9-33.2-28.5-53.1-19.1c-11.4,5.4-19.6,15.8-22.1,28.2H16v-40h296v-16h16c4.4,0,8-3.6,8-8
			v-40c0,4.4,3.6,8,8,8h47.2l0.8,8.7c0.4,3.8,3.3,6.8,7.1,7.2l64.9,7.2L464,352z"/>
	</g>
</g>
<g>
	<g>
		<rect x="392" y="352" width="16" height="16"/>
	</g>
</g>
<g>
	<g>
		<rect x="320" y="352" width="16" height="16"/>
	</g>
</g>
<g>
	<g>
		<rect x="152" y="352" width="16" height="16"/>
	</g>
</g>
<g>
	<g>
		<rect x="80" y="352" width="16" height="16"/>
	</g>
</g>
<g>
	<g>
		<rect x="224" y="152" width="16" height="128"/>
	</g>
</g>
<g>
	<g>
		<rect x="256" y="152" width="16" height="128"/>
	</g>
</g>
<g>
	<g>
		<rect x="192" y="152" width="16" height="128"/>
	</g>
</g>
<g>
	<g>
		<rect x="160" y="152" width="16" height="128"/>
	</g>
</g>
<g>
	<g>
		<rect x="128" y="152" width="16" height="128"/>
	</g>
</g>
<g>
	<g>
		<rect x="96" y="152" width="16" height="128"/>
	</g>
</g>
<g>
	<g>
		<rect x="64" y="152" width="16" height="128"/>
	</g>
</g>
<g>
	<g>
		<rect x="32" y="152" width="16" height="128"/>
	</g>
</g>
<g>
	<g>
		<rect x="440" y="288" width="16" height="16"/>
	</g>
</g>
</svg>
