<svg height="480pt" viewBox="0 -144 480 480" width="480pt" xmlns="http://www.w3.org/2000/svg"><path d="m200 32h-32c-4.417969 0-8 3.582031-8 8v32c0 4.417969 3.582031 8 8 8h32c4.417969 0 8-3.582031 8-8v-32c0-4.417969-3.582031-8-8-8zm-8 32h-16v-16h16zm0 0"/><path d="m136 32h-32c-4.417969 0-8 3.582031-8 8v32c0 4.417969 3.582031 8 8 8h32c4.417969 0 8-3.582031 8-8v-32c0-4.417969-3.582031-8-8-8zm-8 32h-16v-16h16zm0 0"/><path d="m72 32h-32c-4.417969 0-8 3.582031-8 8v32c0 4.417969 3.582031 8 8 8h32c4.417969 0 8-3.582031 8-8v-32c0-4.417969-3.582031-8-8-8zm-8 32h-16v-16h16zm0 0"/><path d="m442.753906 53.816406-14.402344-4.800781-8.894531-8.902344c-25.632812-25.773437-60.515625-40.21875-96.863281-40.113281h-314.59375c-4.417969 0-8 3.582031-8 8v144c0 4.417969 3.582031 8 8 8h417.519531c26.714844-.015625 49.476563-19.394531 53.757813-45.765625 4.277344-26.371094-11.1875-51.953125-36.523438-60.417969zm-120.160156-37.816406c30.3125-.042969 59.519531 11.390625 81.75 32h-71.398438l-16-32zm-306.59375 128v-32h28.6875l32 32zm83.3125 0-32-32h41.375l32 32zm64 0-32-32h92.6875v8c0 4.417969 3.582031 8 8 8h48c4.417969 0 8-3.582031 8-8v-8h44.800781c28.265625.03125 55.296875 11.585938 74.847657 32zm76.6875-32v-64h32v64zm188.734375 31.671875-5.191406-6.175781c-22.78125-26.359375-55.902344-41.507813-90.742188-41.496094h-44.800781v-56c0-4.417969-3.582031-8-8-8h-48c-4.417969 0-8 3.582031-8 8v56h-208v-80h283.054688l21.785156 43.578125c1.355468 2.710937 4.128906 4.425781 7.160156 4.421875h94.695312l14.992188 5c17.265625 5.785156 28.09375 22.902344 25.925781 40.980469s-16.734375 32.152343-34.878906 33.691406zm0 0"/><path d="m432 88h-8c-4.417969 0-8 3.582031-8 8s3.582031 8 8 8h8c4.417969 0 8-3.582031 8-8s-3.582031-8-8-8zm0 0"/><path d="m472 176h-464c-4.417969 0-8 3.582031-8 8s3.582031 8 8 8h464c4.417969 0 8-3.582031 8-8s-3.582031-8-8-8zm0 0"/></svg>