<?xml version="1.0" standalone="no"?>
<!DOCTYPE svg PUBLIC "-//W3C//DTD SVG 20010904//EN"
 "http://www.w3.org/TR/2001/REC-SVG-20010904/DTD/svg10.dtd">
<svg version="1.0" xmlns="http://www.w3.org/2000/svg"
 width="768.000000pt" height="768.000000pt" viewBox="0 0 768.000000 768.000000"
 preserveAspectRatio="xMidYMid meet">
<metadata>
Created by potrace 1.11, written by Peter Selinger 2001-2013
</metadata>
<g transform="translate(0.000000,768.000000) scale(0.100000,-0.100000)"
fill="#000000" stroke="none">
<path d="M3610 7674 c-791 -57 -1499 -332 -2110 -818 -237 -189 -526 -496
-715 -761 -388 -544 -626 -1212 -675 -1895 -19 -276 -8 -687 25 -940 111 -828
478 -1573 1065 -2160 884 -885 2142 -1267 3370 -1024 985 195 1849 781 2403
1630 328 504 524 1063 589 1684 8 78 13 259 13 480 0 371 -8 475 -56 745 -106
592 -377 1183 -765 1670 -113 142 -428 457 -569 569 -560 445 -1211 717 -1915
801 -129 15 -544 27 -660 19z m304 -203 l35 -68 75 -12 c42 -7 76 -16 76 -21
0 -5 -25 -30 -54 -57 l-55 -48 9 -50 c5 -27 12 -65 15 -84 l6 -33 -73 40 -74
41 -73 -41 -74 -40 6 29 c3 17 9 54 13 82 l7 53 -58 58 -57 57 34 6 c18 3 55
9 81 13 47 6 48 7 83 75 19 38 36 69 39 69 3 0 20 -31 39 -69z m-626 -73 c16
-27 19 -28 99 -28 46 0 83 -3 83 -7 0 -3 -17 -29 -38 -57 -21 -28 -41 -56 -45
-62 -3 -5 5 -41 19 -78 13 -37 24 -71 24 -76 0 -5 -34 3 -75 17 l-75 25 -65
-51 -65 -51 0 82 0 83 -66 43 c-36 24 -63 46 -60 50 4 3 37 15 74 27 l67 21
25 78 24 78 29 -33 c15 -19 36 -46 45 -61z m1259 -2 l19 -70 78 -26 78 -26
-66 -44 -65 -45 -3 -84 -3 -84 -55 43 c-30 24 -59 46 -65 51 -5 4 -44 -3 -85
-16 -41 -14 -75 -23 -76 -22 -1 1 9 36 24 78 l26 75 -40 54 c-64 87 -65 81 24
74 l80 -7 48 66 c27 36 52 62 56 59 3 -4 15 -38 25 -76z m-1783 -180 c103 22
101 24 61 -57 l-36 -70 41 -71 40 -70 -83 7 -84 7 -50 -57 c-28 -31 -53 -53
-56 -48 -2 4 -10 40 -16 79 l-12 71 -75 33 -76 33 71 39 c76 42 75 42 86 141
l6 57 61 -53 60 -54 62 13z m2476 -113 c38 -20 67 -40 65 -44 -3 -3 -34 -19
-70 -34 -46 -20 -67 -34 -70 -49 -2 -12 -9 -48 -16 -80 l-11 -60 -56 58 -56
59 -76 -10 c-41 -6 -76 -9 -78 -7 -2 1 14 34 35 72 l38 70 -33 67 c-18 37 -31
69 -29 71 2 3 37 -3 77 -11 l72 -15 62 57 61 57 8 -82 9 -82 68 -37z m-3179
-134 l61 -41 74 30 c46 19 74 26 74 19 0 -7 -9 -41 -20 -76 -21 -72 -23 -67
37 -137 24 -28 43 -54 43 -58 0 -3 -36 -6 -79 -6 l-79 0 -44 -71 -44 -70 -30
77 -29 78 -78 19 c-43 11 -75 22 -72 26 4 3 32 26 62 51 l56 46 -2 77 c-1 42
0 77 4 77 3 0 33 -18 66 -41z m3684 -47 l-7 -77 62 -49 c69 -55 69 -56 -23
-77 -31 -7 -61 -17 -66 -23 -5 -6 -20 -42 -34 -81 l-24 -69 -47 72 -46 72 -81
0 -80 0 26 33 c14 17 38 47 52 65 l26 33 -21 74 c-11 41 -16 75 -11 75 5 0 38
-12 74 -26 l65 -26 63 41 c34 22 66 41 70 41 5 0 5 -35 2 -78z m-1480 -202
c341 -51 646 -148 949 -303 714 -365 1269 -1027 1500 -1789 154 -508 164 -923
36 -1433 l-40 -159 0 -323 0 -323 -90 0 -90 0 0 102 0 103 -60 -109 c-72 -128
-165 -271 -247 -378 -83 -108 -256 -300 -314 -349 -41 -34 -47 -44 -39 -60 9
-17 7 -19 -19 -19 -20 0 -44 -13 -76 -40 -292 -253 -712 -477 -1105 -591 -272
-78 -523 -112 -830 -112 -479 1 -878 91 -1305 297 -226 109 -427 237 -603 385
-71 59 -76 61 -131 61 -31 0 -62 5 -69 12 -7 7 -12 35 -12 63 0 51 -1 53 -86
146 -143 156 -305 375 -393 532 -25 43 -39 57 -55 57 -20 0 -25 10 -40 77 -10
42 -38 122 -62 177 l-44 101 0 -227 0 -228 -89 0 -90 0 -5 657 c-4 362 -9 712
-12 778 -6 129 6 272 37 450 133 746 550 1419 1160 1875 449 336 957 532 1529
589 155 16 533 5 695 -19z m-2548 -179 l-6 -80 61 -54 62 -54 -80 -18 -80 -17
-29 -73 c-16 -40 -33 -71 -36 -69 -4 2 -24 33 -44 69 -35 64 -37 65 -78 66
-23 0 -59 3 -80 7 l-38 7 52 58 52 59 -17 75 c-10 41 -16 76 -14 78 2 2 32 -9
68 -25 36 -16 70 -29 75 -30 6 0 37 18 70 40 33 21 62 39 64 39 2 1 1 -35 -2
-78z m4370 22 c29 -18 58 -33 65 -33 7 0 42 14 78 30 36 16 66 28 67 26 1 -1
-6 -35 -17 -76 -21 -82 -23 -77 44 -147 22 -24 36 -46 32 -50 -4 -5 -40 -10
-79 -13 l-71 -5 -37 -63 c-20 -35 -40 -64 -44 -65 -4 -1 -20 29 -35 68 l-28
70 -71 16 c-39 9 -74 19 -77 21 -2 3 22 28 54 56 l58 51 -7 58 c-11 90 -11
105 4 97 6 -4 35 -23 64 -41z m-4818 -525 c1 -35 5 -39 66 -73 36 -20 67 -40
69 -44 3 -4 -29 -20 -69 -35 l-74 -28 -11 -57 c-24 -116 -16 -111 -79 -42
l-56 62 -77 -9 c-43 -4 -78 -7 -78 -5 0 1 18 33 41 70 l41 67 -31 70 c-17 38
-29 71 -27 74 3 2 38 -4 80 -14 l75 -17 58 53 58 53 7 -44 c3 -24 7 -61 7 -81z
m5344 12 c12 0 47 7 77 15 30 8 58 15 62 15 4 0 -8 -33 -26 -74 l-34 -74 39
-61 c21 -34 39 -66 39 -71 0 -5 -15 -7 -32 -5 -133 16 -118 20 -172 -46 -27
-33 -51 -57 -55 -54 -3 4 -13 39 -21 78 l-16 71 -72 29 c-39 16 -69 33 -67 38
3 4 32 23 65 40 64 36 70 46 70 130 0 31 3 59 6 62 4 4 31 -16 61 -43 31 -28
64 -50 76 -50z m-5713 -520 l16 -65 65 -23 c35 -13 68 -27 72 -31 5 -5 -21
-27 -57 -50 l-66 -41 0 -64 c0 -100 -4 -104 -64 -53 -28 24 -56 46 -62 50 -6
4 -44 -3 -84 -14 -40 -11 -74 -18 -75 -17 -2 2 10 36 26 76 l29 73 -38 57
c-21 31 -41 62 -45 68 -4 7 20 9 76 6 l82 -4 49 63 c33 43 51 59 54 49 3 -8
13 -44 22 -80z m6014 15 l47 -59 81 3 82 3 -19 -29 c-10 -15 -29 -44 -42 -63
-29 -43 -29 -43 3 -119 14 -35 23 -65 20 -68 -2 -3 -37 5 -77 16 l-72 20 -57
-49 c-32 -28 -60 -50 -63 -50 -4 0 -7 35 -9 78 l-3 77 -45 30 c-25 17 -56 37
-70 46 -24 15 -23 16 53 44 85 31 74 15 108 149 6 21 12 36 14 35 2 -2 24 -31
49 -64z m-6272 -588 l35 -73 79 -13 79 -13 -61 -57 -62 -56 11 -73 c5 -40 8
-75 5 -78 -3 -3 -33 11 -66 31 -33 19 -65 35 -71 35 -7 0 -39 -14 -72 -31 -34
-17 -64 -28 -67 -25 -3 4 2 39 10 79 l16 72 -54 55 c-30 31 -54 58 -54 61 0 4
35 9 78 13 l78 7 38 70 c21 38 39 69 41 69 1 0 18 -33 37 -73z m6613 -80 c28
-5 65 -11 84 -13 l34 -5 -58 -59 -57 -58 16 -77 c9 -42 16 -79 16 -81 0 -2
-33 13 -73 32 l-74 37 -67 -38 c-37 -20 -69 -36 -71 -33 -2 2 1 37 7 78 l11
74 -56 51 c-32 28 -57 53 -57 57 0 4 34 12 75 19 l76 12 35 76 35 76 37 -70
c37 -69 38 -70 87 -78z m-6767 -512 l42 -65 81 0 81 0 -51 -64 -51 -63 25 -73
c14 -41 23 -75 22 -77 -2 -1 -36 8 -77 22 -40 13 -78 22 -84 18 -6 -4 -34 -24
-62 -45 -28 -21 -54 -38 -57 -38 -4 0 -4 35 0 78 l6 78 -67 49 c-36 27 -64 50
-63 51 2 2 36 14 77 26 l73 23 25 73 c13 39 27 72 30 72 4 0 26 -30 50 -65z
m6841 -27 l22 -67 57 -16 c31 -9 65 -18 75 -21 26 -8 21 -16 -43 -61 l-59 -42
-3 -81 -3 -81 -64 45 -63 45 -70 -25 c-38 -14 -72 -23 -75 -21 -2 3 6 37 18
76 l23 70 -47 61 c-26 33 -47 62 -47 65 0 3 35 5 79 5 l79 0 42 65 c24 37 46
62 50 58 4 -4 17 -38 29 -75z m-874 -2110 c5 -15 95 -524 95 -538 0 -6 -13
-10 -30 -10 -26 0 -30 4 -35 38 -14 85 -12 82 -60 82 -48 0 -48 -1 -60 -77 -6
-39 -9 -43 -36 -43 -16 0 -29 5 -29 10 0 13 90 521 95 538 3 6 16 12 30 12 14
0 28 -6 30 -12z m-5325 -243 l0 -245 60 0 60 0 0 -30 0 -30 -95 0 -95 0 0 275
0 275 35 0 35 0 0 -245z"/>
<path d="M2620 5339 c0 -39 53 -139 74 -139 7 0 19 -12 27 -26 15 -29 45 -44
87 -44 58 0 -2 -17 -67 -19 -59 -1 -168 -21 -286 -51 -22 -5 -83 -19 -135 -31
-131 -29 -282 -81 -430 -146 -69 -31 -154 -66 -190 -78 -98 -34 -204 -77 -215
-87 -7 -6 -3 -15 10 -24 25 -19 235 -14 259 5 8 7 19 10 24 7 5 -3 20 3 33 13
31 24 114 54 131 48 7 -2 -7 -10 -32 -17 -43 -11 -146 -67 -173 -94 -6 -6 -49
-34 -94 -61 -45 -26 -79 -53 -76 -58 4 -6 1 -7 -6 -3 -7 5 -29 -4 -52 -19 -22
-14 -104 -58 -182 -96 -156 -77 -174 -89 -135 -89 14 0 40 -3 57 -6 26 -5 32
-3 41 17 9 22 10 22 6 2 -2 -15 2 -23 15 -26 11 -3 17 -1 13 4 -3 5 0 9 5 9 6
0 11 -8 11 -17 1 -15 3 -15 19 5 20 24 41 29 41 11 0 -8 4 -9 13 0 8 6 16 9
19 6 3 -3 11 1 18 10 7 8 20 15 30 15 9 0 22 10 29 23 l12 22 -5 -22 c-6 -32
10 -29 80 14 32 20 84 50 114 66 30 17 57 34 58 39 2 4 10 8 17 8 20 0 304
166 317 185 4 5 8 20 8 31 0 31 26 37 45 11 12 -18 15 -19 15 -4 0 22 16 22
24 1 4 -11 -2 -22 -16 -33 -42 -28 -107 -93 -113 -110 -5 -17 -116 -96 -238
-169 -136 -82 -225 -145 -342 -244 -97 -83 -105 -91 -105 -120 0 -17 3 -19 12
-10 7 7 31 12 54 12 24 0 46 5 49 10 3 6 16 10 28 10 13 0 34 8 47 17 14 10
34 19 45 21 36 6 40 7 52 15 6 4 32 9 58 12 26 2 63 15 83 27 33 20 35 20 22
3 -19 -25 -61 -74 -79 -92 -42 -43 -155 -193 -168 -222 -8 -19 -25 -43 -38
-53 -27 -21 -23 -48 7 -48 28 0 79 29 117 67 18 18 37 33 42 33 5 0 30 10 55
22 27 12 49 17 52 12 4 -5 20 -20 36 -32 34 -26 111 -30 142 -7 33 25 34 17 2
-15 -25 -25 -28 -33 -18 -45 7 -8 21 -15 32 -15 33 0 129 53 182 100 28 25 45
37 38 28 -8 -9 -11 -22 -7 -28 9 -15 43 -3 86 31 33 26 37 27 58 13 20 -14 24
-14 46 0 14 9 39 32 57 51 32 36 51 45 42 20 -9 -23 5 -36 26 -25 13 7 19 6
24 -5 3 -8 12 -15 20 -15 18 0 83 35 108 57 16 14 18 13 27 -11 8 -19 18 -26
37 -26 14 0 40 -6 57 -14 18 -8 40 -16 49 -20 11 -3 15 -11 12 -21 -12 -31 5
-63 36 -70 17 -4 36 -2 44 4 10 8 13 0 14 -37 3 -62 30 -86 85 -78 35 6 37 5
27 -13 -5 -11 -10 -29 -10 -40 0 -29 37 -63 59 -56 18 5 51 -17 51 -34 0 -3
13 -14 29 -24 27 -16 28 -16 38 6 11 22 11 22 18 -5 7 -26 11 -28 61 -28 61 0
69 8 105 99 37 94 40 94 110 18 56 -60 63 -65 86 -56 32 12 41 4 25 -21 -7
-11 -12 -28 -12 -38 0 -9 -8 -28 -17 -42 -12 -16 -13 -25 -5 -28 15 -5 -16
-68 -47 -96 -18 -17 -21 -30 -21 -113 0 -56 -4 -93 -10 -93 -6 0 -8 -11 -4
-26 4 -17 2 -29 -7 -35 -11 -7 -11 -9 -1 -9 7 0 10 -5 7 -10 -4 -6 -11 -7 -17
-4 -7 4 -8 2 -4 -4 4 -6 2 -21 -4 -32 -6 -11 -7 -20 -2 -20 5 0 15 13 22 30
12 30 40 60 40 44 0 -5 -9 -27 -21 -48 -24 -45 -19 -60 8 -19 33 52 42 58 58
37 9 -12 14 -14 15 -6 0 30 17 0 18 -33 1 -38 44 -105 67 -105 17 0 25 -23 25
-72 0 -60 8 -43 12 24 3 59 19 81 37 50 9 -15 11 -14 19 8 l9 25 8 -24 c4 -13
8 -30 9 -37 4 -29 15 -24 21 9 6 29 10 34 28 29 16 -4 19 -2 14 11 -4 12 -1
17 11 17 15 0 18 -9 19 -51 0 -28 6 -56 13 -62 10 -10 12 -7 7 11 -3 12 -1 22
3 22 5 0 7 11 4 25 -2 14 0 25 5 25 4 0 9 78 10 173 1 140 -2 177 -15 197
l-15 25 6 -25 c3 -14 8 -41 12 -60 l5 -35 -22 22 c-40 38 -48 183 -9 183 10 0
21 -6 26 -12 5 -8 10 16 13 57 l5 70 80 3 80 3 89 -231 c79 -203 91 -230 111
-230 13 0 26 -9 33 -22 10 -21 11 -20 11 15 1 25 -7 51 -21 70 l-22 32 22 -19
22 -19 0 39 c0 31 -8 48 -36 79 -36 40 -36 41 -30 107 3 36 9 73 12 82 9 22
24 20 24 -3 0 -28 11 -52 21 -45 5 3 9 34 9 70 0 52 3 66 18 71 9 4 20 11 25
17 5 8 9 7 15 -1 4 -6 34 -13 67 -15 l60 -3 0 -160 0 -160 33 -3 c35 -4 39 3
17 32 -20 27 -19 54 2 58 14 2 17 13 15 53 -1 30 2 43 6 32 7 -16 11 -15 54
12 35 22 48 38 53 63 10 44 16 53 25 37 7 -10 12 -10 26 2 15 12 18 12 28 -5
43 -72 72 -82 131 -43 28 18 35 28 35 55 0 31 1 32 45 32 52 0 113 33 117 65
2 12 12 21 26 23 30 4 92 87 92 122 0 21 6 29 25 34 14 4 39 25 55 48 24 32
30 52 30 90 0 56 13 61 36 16 25 -47 163 -177 214 -199 25 -11 70 -34 101 -50
31 -16 63 -29 70 -29 8 0 29 -14 47 -30 21 -18 50 -31 78 -36 32 -4 50 -14 61
-30 14 -22 22 -24 94 -24 44 0 79 2 79 5 0 3 -21 32 -46 66 -59 77 -168 285
-132 252 26 -24 44 -31 32 -11 -4 7 -3 8 4 4 7 -4 12 -13 12 -21 0 -13 101
-99 118 -101 4 0 29 -21 55 -47 26 -26 52 -45 56 -43 4 3 14 -7 20 -21 10 -22
14 -24 22 -12 7 12 9 11 9 -3 0 -25 63 -70 85 -61 13 4 16 3 11 -5 -5 -9 8
-10 51 -6 75 7 87 18 48 50 -16 14 -61 50 -100 82 -84 70 -244 224 -195 189
19 -13 45 -28 57 -31 12 -4 25 -16 28 -26 10 -32 202 -137 230 -126 8 3 23 -4
34 -15 23 -25 57 -18 67 13 4 15 1 26 -13 37 -96 78 -98 80 -83 90 8 6 25 8
37 4 58 -14 4 47 -153 173 -110 88 -162 140 -177 175 -8 19 -40 69 -71 112
-31 44 -63 92 -72 109 -29 56 -196 222 -304 304 -125 93 -174 133 -169 138 2
2 31 16 64 31 73 34 111 65 93 77 -9 5 -8 8 5 8 26 0 20 19 -10 31 -16 6 -88
19 -162 30 -133 20 -135 20 -185 1 -28 -11 -89 -28 -136 -37 -134 -27 -148
-34 -218 -99 -37 -33 -85 -75 -107 -92 -185 -143 -255 -193 -287 -205 l-38
-13 25 -26 c23 -23 24 -32 23 -130 0 -58 -3 -98 -6 -90 -3 8 -11 21 -19 28
-11 11 -13 11 -13 -2 0 -9 5 -16 12 -16 8 0 6 -6 -4 -17 -16 -15 -21 -13 -71
26 -33 25 -60 39 -70 35 -8 -3 -30 2 -48 11 -36 19 -106 22 -122 6 -8 -8 -6
-11 6 -11 27 0 20 -15 -15 -28 -35 -13 -48 -8 -30 10 7 7 12 16 12 20 0 14
-28 9 -45 -8 -8 -9 -32 -17 -53 -19 -41 -3 -100 -23 -69 -24 9 -1 25 -5 35
-11 9 -5 35 -17 57 -26 39 -16 39 -17 15 -24 -23 -7 -22 -8 10 -10 l35 -2 -28
-10 c-15 -5 -25 -13 -23 -16 2 -4 -8 -8 -22 -8 -15 -1 -51 -4 -79 -6 -29 -3
-53 -4 -53 -2 0 2 15 10 33 18 27 12 29 14 9 15 -30 1 -102 24 -102 33 0 3 8
8 18 10 13 3 9 8 -17 22 -33 17 -34 19 -16 32 10 8 26 14 34 14 11 1 8 8 -11
25 -28 24 -39 53 -15 39 9 -6 9 -4 1 7 -15 19 -3 48 25 63 22 12 20 14 -37 30
-33 9 -65 23 -72 31 -7 8 -19 15 -28 15 -11 0 -13 8 -9 37 4 20 2 42 -4 49
-11 14 -39 8 -39 -8 0 -5 3 -7 8 -5 4 3 8 -8 9 -24 1 -16 -2 -29 -6 -29 -5 0
-11 -9 -14 -21 -5 -17 -2 -20 14 -16 25 7 33 -7 14 -23 -9 -7 -27 -10 -43 -7
-26 5 -28 3 -27 -26 0 -23 -5 -33 -18 -35 -18 -4 -18 -3 -2 22 17 25 16 26 -2
26 -11 0 -28 -9 -38 -20 -23 -26 -45 -26 -45 1 0 13 -4 18 -12 14 -7 -4 -5 0
5 9 10 8 17 22 15 32 -2 13 -12 4 -35 -32 -18 -27 -33 -44 -33 -37 0 7 -7 10
-17 6 -13 -5 -15 -2 -11 15 5 16 2 19 -11 14 -13 -5 -14 -3 -4 9 7 8 10 24 7
36 -4 16 1 24 25 36 29 14 32 14 45 -4 12 -17 14 -18 20 -4 3 9 10 14 15 10
21 -12 36 53 16 67 -16 12 -25 9 -25 -6 0 -8 -6 -17 -12 -19 -8 -4 -7 -6 4 -6
9 -1 19 5 21 12 3 6 6 8 6 2 0 -5 -3 -16 -8 -24 -7 -10 -13 -11 -31 -1 -16 9
-19 15 -11 23 17 17 13 31 -11 42 -12 6 -29 23 -38 39 -9 17 -38 40 -68 56
-30 15 -52 31 -50 36 2 5 -10 10 -25 12 -22 3 -27 7 -22 23 5 15 1 19 -18 19
-29 0 -42 14 -51 57 -4 17 -13 33 -20 36 -7 3 -18 24 -26 48 -18 55 -61 95
-132 124 l-56 23 8 -27 c4 -14 11 -34 15 -45 7 -16 6 -17 -14 -7 -12 7 -19 16
-16 21 3 6 -1 7 -10 3 -11 -4 -26 4 -43 22 -25 28 -26 28 -3 22 18 -4 21 -2
16 11 -5 14 -4 15 6 5 25 -25 32 -13 9 13 -17 17 -31 23 -46 20 -13 -4 -41 5
-70 20 -27 15 -85 39 -129 55 -45 15 -112 46 -150 68 -39 22 -82 43 -97 46
-26 7 -28 5 -28 -26z m510 -264 c14 -16 10 -18 -14 -9 -9 3 -16 10 -16 15 0
14 16 11 30 -6z m10 -49 c0 -2 -7 -7 -16 -10 -8 -3 -12 -2 -9 4 6 10 25 14 25
6z m-153 -54 c-10 -10 -17 -29 -17 -43 0 -32 -9 -42 -49 -56 -61 -22 -81 18
-36 72 26 32 35 22 10 -11 -28 -37 -15 -34 21 5 19 22 45 42 57 44 12 2 24 5
26 6 2 0 -3 -7 -12 -17z m43 -16 c0 -3 -4 -8 -10 -11 -5 -3 -10 -1 -10 4 0 6
5 11 10 11 6 0 10 -2 10 -4z m-497 -41 c-3 -9 3 -25 13 -36 17 -19 16 -20 -17
-55 -37 -39 -65 -56 -130 -78 -41 -14 -72 -14 -33 0 29 11 106 65 100 71 -3 3
-25 -4 -49 -16 -47 -23 -77 -27 -77 -11 0 24 38 50 95 65 48 13 66 23 79 46
18 31 29 39 19 14z m2907 -25 c0 -5 -7 -7 -15 -4 -8 4 -15 8 -15 10 0 2 7 4
15 4 8 0 15 -4 15 -10z m-2006 -56 c5 -12 22 -30 38 -40 35 -23 36 -39 3 -40
-13 -1 -24 1 -23 5 0 3 -1 9 -2 14 -1 4 -3 13 -4 19 0 7 -9 14 -19 16 -26 5
-59 39 -44 46 22 9 42 1 51 -20z m-1334 1 c0 -2 -10 -9 -22 -15 -22 -11 -22
-10 -4 4 21 17 26 19 26 11z m1294 -96 c-3 -6 0 -15 7 -20 11 -7 10 -13 -8
-31 l-23 -22 0 36 c0 31 7 42 28 47 2 1 0 -4 -4 -10z m1693 3 c20 -12 43 -78
43 -121 0 -40 -14 -62 -24 -39 -3 7 -2 0 1 -16 4 -21 3 -27 -6 -22 -7 4 -11
20 -9 34 3 39 -19 106 -42 127 -19 17 -19 19 -2 31 20 16 23 16 39 6z m-2564
-19 c-9 -24 -85 -123 -114 -148 l-23 -20 24 40 c21 35 109 145 117 145 1 0 -1
-8 -4 -17z m1052 -23 c-3 -5 3 -10 14 -10 23 0 29 -16 9 -23 -7 -2 -18 3 -25
12 -15 20 -16 31 -2 31 5 0 7 -4 4 -10z m-125 -14 c0 -7 -8 -16 -17 -19 -10
-2 -27 -8 -38 -12 -18 -7 -17 -5 4 18 26 29 51 35 51 13z m2317 -12 c14 -21
13 -22 -22 -22 -37 0 -70 22 -59 39 10 17 66 5 81 -17z m-3517 12 c0 -2 -26
-23 -57 -46 l-58 -42 50 46 c45 40 65 54 65 42z m1250 -41 c-8 -9 -9 -15 -2
-15 6 0 14 5 17 10 11 18 25 10 25 -15 0 -15 -9 -31 -25 -41 -29 -19 -47 -11
-43 19 2 16 -2 22 -15 21 -17 -2 -17 -1 -1 17 21 24 63 27 44 4z m-936 -34
c-10 -17 -22 -31 -26 -31 -4 0 -8 -5 -8 -11 0 -14 -51 -81 -57 -75 -3 3 19 38
48 79 54 75 77 95 43 38z m2377 -5 c15 -16 10 -29 -6 -16 -13 11 -14 8 -10
-16 3 -16 2 -42 -3 -59 l-9 -30 -7 32 c-4 18 -12 35 -17 38 -18 12 -9 62 14
78 20 13 22 13 25 -2 2 -9 8 -20 13 -25z m351 0 c5 -24 4 -24 -18 -8 -16 12
-19 21 -12 29 14 17 25 9 30 -21z m-1674 -11 c7 -6 -27 -61 -53 -85 -22 -21
-25 -22 -19 -5 5 11 14 26 22 34 9 9 10 17 3 24 -7 7 -7 15 1 24 9 11 7 12 -7
7 -13 -5 -16 -4 -11 4 6 10 51 7 64 -3z m-1498 -11 c-8 -8 -23 -20 -34 -25
-13 -7 -9 -1 9 15 34 29 43 33 25 10z m3861 -90 c12 -15 12 -16 -2 -8 -21 12
-109 93 -109 100 0 7 92 -70 111 -92z m-3348 27 c-37 -56 -123 -162 -107 -131
4 8 28 44 54 80 26 36 53 75 59 88 6 12 16 22 22 22 5 0 -7 -26 -28 -59z m896
20 c-15 -5 -22 6 -14 19 6 9 10 9 16 -1 5 -8 4 -15 -2 -18z m1361 -33 c0 -10
-4 -18 -9 -18 -13 0 -21 27 -14 46 5 13 7 13 14 2 5 -7 9 -21 9 -30z m-50 6
c10 -25 13 -70 4 -47 -3 7 -11 10 -18 7 -7 -3 -21 5 -32 17 -19 22 -19 22 2
17 17 -4 20 -2 17 13 -8 29 16 23 27 -7z m1074 -11 c41 -41 33 -54 -18 -29
-19 9 -41 13 -49 10 -21 -8 -38 -59 -25 -72 6 -6 7 -18 3 -29 -5 -10 -7 -21
-7 -25 3 -15 -9 -8 -43 24 -19 17 -35 36 -35 43 0 6 18 26 41 44 22 18 38 39
35 46 -16 41 53 33 98 -12z m-1157 -17 c14 2 29 -5 42 -23 26 -32 27 -52 2
-29 -17 16 -19 15 -24 -20 -3 -20 -4 -50 -1 -68 l6 -31 -22 25 c-47 56 -74
133 -53 153 3 4 11 3 17 -2 6 -5 21 -7 33 -5z m-877 -10 c0 -2 -7 -9 -15 -16
-12 -10 -15 -10 -15 4 0 9 7 16 15 16 8 0 15 -2 15 -4z m53 -61 c8 -18 -11
-31 -25 -17 -11 11 -3 32 12 32 4 0 10 -7 13 -15z m-363 -11 c0 -15 -61 -64
-80 -64 -9 0 -5 9 10 25 13 14 19 25 14 25 -15 1 24 27 41 27 8 0 15 -6 15
-13z m2134 -48 c-3 -9 -10 -13 -16 -10 -5 3 -4 12 3 20 15 18 22 13 13 -10z
m-2037 -7 c-6 -9 -24 -25 -41 -34 l-31 -18 23 25 c12 13 22 29 22 34 0 5 8 10
19 10 15 0 16 -4 8 -17z m1055 -14 c3 -14 1 -25 -3 -25 -5 0 -9 11 -9 25 0 14
2 25 4 25 2 0 6 -11 8 -25z m996 -40 c37 -51 26 -47 -34 13 -38 38 -41 45 -18
40 9 -2 32 -25 52 -53z m-123 -16 c4 -12 26 -42 49 -68 l41 -45 -42 33 c-39
30 -83 80 -83 95 0 16 30 3 35 -15z m-1250 -9 c-11 -5 -27 -9 -35 -9 -9 0 -8
4 5 9 11 5 27 9 35 9 9 0 8 -4 -5 -9z m1155 -15 c0 -8 -2 -15 -4 -15 -2 0 -6
7 -10 15 -3 8 -1 15 4 15 6 0 10 -7 10 -15z m-1166 -72 c-107 -88 -170 -116
-81 -38 23 21 34 35 25 32 -10 -3 -20 -2 -23 3 -4 6 4 10 17 10 13 0 37 8 53
19 40 24 47 4 9 -26z m-1339 -110 c-34 -75 -54 -105 -65 -98 -10 6 -1 28 50
125 42 80 54 58 15 -27z m766 -17 c13 -9 19 -21 16 -30 -8 -21 -44 -20 -56 1
-14 26 -40 0 -33 -33 6 -32 -17 -29 -29 3 -6 16 1 35 29 77 l37 55 8 -29 c4
-16 17 -36 28 -44z m-509 -84 c-34 -83 -57 -128 -76 -143 l-27 -21 7 44 c7 50
32 121 67 193 22 44 25 47 28 25 4 -25 4 -25 24 8 35 58 26 19 -23 -106z m-73
55 c1 -16 -17 -66 -39 -113 -39 -81 -60 -99 -60 -50 0 27 40 148 65 197 16 31
19 32 26 14 4 -11 8 -33 8 -48z m1748 -59 c-3 -8 -6 -5 -6 6 -1 11 2 17 5 13
3 -3 4 -12 1 -19z m-37 -28 c21 34 86 -96 100 -200 4 -30 13 -69 21 -87 15
-36 3 -59 -15 -29 -6 10 -22 35 -35 54 -35 53 -78 170 -85 227 -3 28 -3 44 0
36 5 -10 8 -10 14 -1z m-920 -21 c0 -5 -4 -9 -10 -9 -5 0 -10 7 -10 16 0 8 5
12 10 9 6 -3 10 -10 10 -16z m65 -18 c18 -36 5 -48 -26 -23 -14 12 -20 25 -16
35 10 25 25 21 42 -12z m-55 -32 c0 -6 -4 -7 -10 -4 -5 3 -10 11 -10 16 0 6 5
7 10 4 6 -3 10 -11 10 -16z m646 -84 c-9 -31 -15 -41 -15 -26 -1 29 23 112 26
91 2 -8 -3 -37 -11 -65z m45 -8 c-8 -8 -11 -1 -11 24 0 46 14 60 18 19 2 -18
-1 -37 -7 -43z m-891 -9 c0 -19 -18 -43 -25 -36 -4 3 -2 16 5 27 12 24 20 27
20 9z m2097 -30 c-3 -8 -6 -5 -6 6 -1 11 2 17 5 13 3 -3 4 -12 1 -19z m-979
-204 c27 -55 27 -64 2 -57 -28 7 -38 23 -46 71 -9 56 14 49 44 -14z m-1157
-537 c-8 -8 -11 -5 -11 9 0 27 14 41 18 19 2 -9 -1 -22 -7 -28z"/>
<path d="M3818 4641 l-26 -6 19 -24 c23 -28 49 -21 49 14 0 14 -3 24 -7 24 -5
-1 -20 -4 -35 -8z"/>
<path d="M4453 4525 c-3 -9 -3 -19 1 -22 3 -4 6 1 6 10 0 10 4 17 9 17 5 0 7
-10 3 -22 -5 -21 -4 -22 11 -9 9 7 17 10 17 7 0 -4 6 -1 14 6 19 18 10 28 -25
28 -17 0 -32 -6 -36 -15z"/>
<path d="M4595 4510 c-3 -5 -2 -10 4 -10 5 0 13 5 16 10 3 6 2 10 -4 10 -5 0
-13 -4 -16 -10z"/>
<path d="M4481 4436 c-23 -13 -23 -14 43 -46 50 -25 70 -30 78 -22 15 15 17
65 4 74 -18 12 -99 8 -125 -6z"/>
<path d="M880 2960 l0 -560 76 0 76 0 -3 339 c-2 187 -1 335 2 330 3 -6 37
-134 75 -285 l69 -275 39 3 39 3 70 275 c38 151 72 278 76 282 3 4 5 -146 3
-332 l-4 -340 76 0 76 0 0 560 0 560 -74 0 -73 0 -78 -272 c-43 -150 -86 -302
-96 -338 -16 -60 -17 -63 -24 -35 -3 17 -45 168 -93 338 l-86 307 -73 0 -73 0
0 -560z"/>
<path d="M2081 2978 c-58 -299 -107 -551 -109 -560 -4 -16 4 -18 72 -18 42 0
76 1 77 3 0 1 8 49 17 107 l17 105 107 3 c127 3 120 9 138 -125 l13 -93 79 0
c76 0 78 1 73 23 -3 12 -52 263 -108 557 l-103 535 -84 3 -85 3 -104 -543z
m233 47 c20 -126 39 -240 41 -252 5 -23 4 -23 -85 -23 -69 0 -90 3 -90 14 0 7
18 122 40 255 22 133 40 245 40 248 0 4 4 3 9 -2 5 -6 25 -113 45 -240z"/>
<path d="M3012 3500 l-22 -21 0 -519 0 -519 26 -20 c25 -20 39 -21 244 -21
205 0 219 1 244 21 l26 20 0 280 0 279 -140 0 -140 0 0 -65 0 -65 65 0 65 0 0
-170 0 -170 -120 0 -120 0 0 430 0 430 120 0 120 0 0 -100 0 -100 75 0 75 0 0
145 c0 200 21 185 -268 185 -216 0 -229 -1 -250 -20z"/>
<path d="M3990 2960 l0 -560 76 0 75 0 -3 355 c-2 195 -1 355 2 355 3 0 65
-160 139 -355 l135 -355 68 0 68 0 0 560 0 560 -75 0 -76 0 3 -345 c2 -190 0
-345 -3 -345 -3 0 -65 155 -139 345 l-133 345 -69 0 -68 0 0 -560z"/>
<path d="M5010 2985 l0 -536 25 -24 24 -25 224 0 c212 0 226 1 251 21 l26 20
0 540 0 539 -75 0 -75 0 -2 -492 -3 -493 -120 0 -120 0 -3 493 -2 492 -75 0
-75 0 0 -535z"/>
<path d="M6020 2960 l0 -560 76 0 75 0 -3 340 c-2 187 -1 340 2 340 3 0 34
-114 69 -253 36 -138 68 -267 73 -284 8 -30 12 -33 47 -33 l39 0 67 273 c37
149 72 279 76 287 5 8 9 -139 9 -327 l0 -343 70 0 70 0 0 560 0 561 -72 -3
-72 -3 -88 -305 c-48 -168 -88 -317 -88 -332 0 -16 -4 -28 -10 -28 -5 0 -10 9
-10 20 0 18 -81 309 -161 583 l-20 67 -74 0 -75 0 0 -560z"/>
<path d="M4698 3213 c-11 -3 -18 -14 -18 -29 0 -24 1 -24 25 -8 36 23 31 45
-7 37z"/>
<path d="M3307 3186 c-54 -33 -58 -41 -12 -21 22 9 46 19 53 22 13 6 17 23 5
23 -5 0 -25 -11 -46 -24z"/>
<path d="M4780 3181 c0 -7 -9 -24 -20 -38 -11 -14 -20 -20 -20 -12 0 7 -7 3
-16 -10 -12 -16 -23 -22 -40 -18 -13 2 -24 0 -24 -4 0 -17 58 -10 64 7 4 9 9
14 13 11 3 -4 12 -2 18 3 9 7 16 5 26 -6 11 -14 10 -18 -6 -30 -10 -8 -14 -14
-8 -14 21 0 34 29 30 69 -4 38 -17 70 -17 42z"/>
<path d="M3476 3173 c-4 -4 -27 -6 -51 -4 -37 2 -44 0 -39 -13 3 -9 12 -12 22
-9 9 3 -4 -11 -30 -33 -61 -50 -44 -57 21 -10 26 20 50 33 53 31 3 -3 13 4 23
15 17 18 18 39 1 23z"/>
<path d="M4821 3111 c0 -8 -11 -25 -23 -38 -12 -13 -17 -23 -11 -23 18 0 45
38 40 57 -3 11 -5 12 -6 4z"/>
<path d="M4570 2957 c0 -8 7 -20 15 -27 12 -10 15 -10 15 3 0 8 -7 20 -15 27
-12 10 -15 10 -15 -3z"/>
<path d="M1741 2207 c-8 -11 -11 -83 -9 -258 l3 -244 103 -3 102 -3 -2 258 -3
258 -91 3 c-69 2 -94 -1 -103 -11z m169 -252 l0 -235 -75 0 -75 0 0 235 0 235
75 0 75 0 0 -235z"/>
<path d="M2471 2206 c-8 -9 -11 -86 -9 -257 l3 -244 98 -3 97 -3 0 126 0 125
-45 0 c-33 0 -45 -4 -45 -15 0 -10 10 -15 30 -15 l30 0 0 -100 0 -100 -70 0
-70 0 0 235 0 235 70 0 70 0 0 -60 c0 -47 3 -60 15 -60 22 0 22 135 -1 144
-32 12 -161 6 -173 -8z"/>
<path d="M3180 1960 c0 -224 2 -260 15 -260 13 0 15 36 15 260 0 224 -2 260
-15 260 -13 0 -15 -36 -15 -260z"/>
<path d="M3742 2208 c-7 -7 -12 -40 -12 -79 l0 -67 80 -99 80 -98 0 -72 0 -73
-65 0 -65 0 0 65 c0 52 -3 65 -15 65 -13 0 -15 -13 -13 -72 l3 -73 95 0 95 0
3 80 3 80 -86 104 -85 104 0 58 0 59 65 0 65 0 0 -60 c0 -53 2 -60 20 -60 18
0 20 7 20 63 0 36 -5 68 -12 75 -7 7 -42 12 -88 12 -46 0 -81 -5 -88 -12z"/>
<path d="M4410 2205 c0 -11 11 -15 40 -15 l40 0 0 -245 c0 -238 1 -245 20
-245 19 0 20 7 20 245 l0 245 40 0 c29 0 40 4 40 15 0 12 -18 15 -100 15 -82
0 -100 -3 -100 -15z"/>
<path d="M5100 1960 c0 -224 2 -260 15 -260 13 0 15 36 15 260 0 224 -2 260
-15 260 -13 0 -15 -36 -15 -260z"/>
<path d="M5650 1960 c0 -224 2 -260 15 -260 12 0 15 20 15 119 0 66 4 122 8
125 5 3 35 -51 68 -119 42 -87 64 -124 77 -124 9 -1 17 1 17 4 0 3 -27 59 -60
125 -33 66 -60 127 -60 135 0 8 22 59 49 113 61 122 67 142 47 142 -11 0 -36
-41 -73 -120 -31 -66 -60 -120 -64 -120 -5 0 -9 54 -9 120 0 100 -2 120 -15
120 -13 0 -15 -36 -15 -260z"/>
<path d="M6406 2203 c-6 -23 -86 -476 -86 -492 0 -6 6 -11 14 -11 9 0 17 19
22 58 l9 57 60 0 60 0 9 -57 c5 -39 13 -58 22 -58 19 0 19 5 -29 275 -34 191
-46 241 -59 243 -9 2 -19 -5 -22 -15z m50 -210 c13 -76 24 -141 24 -145 0 -5
-25 -8 -56 -8 -56 0 -56 0 -51 28 3 15 13 77 22 137 26 178 29 178 61 -12z"/>
<path d="M6407 1983 c-9 -56 -17 -107 -17 -113 0 -5 16 -10 36 -10 l36 0 -7
48 c-4 26 -12 76 -19 112 l-12 65 -17 -102z"/>
<path d="M1080 1960 l0 -260 80 0 c47 0 80 4 80 10 0 6 -28 10 -65 10 l-65 0
0 250 c0 216 -2 250 -15 250 -13 0 -15 -36 -15 -260z"/>
</g>
</svg>
